<svg xmlns="http://www.w3.org/2000/svg" width="400.15042" height="457.17619" viewBox="0 0 400.15042 457.17619" xmlns:xlink="http://www.w3.org/1999/xlink"><path d="M345.89155,438.35019c2.06592,.12937,3.20768-2.43737,1.64468-3.93333l-.1555-.61819c.02047-.04951,.04105-.09897,.06178-.14839,2.08924-4.9818,9.16992-4.94742,11.24139,.04177,1.83859,4.42817,4.17942,8.86389,4.75579,13.54594,.25838,2.0668,.14213,4.17236-.31648,6.20047,4.30807-9.41059,6.57515-19.68661,6.57515-30.02077,0-2.59652-.14213-5.19301-.43275-7.78295-.239-2.11854-.56839-4.2241-.99471-6.31034-2.30575-11.2772-7.29852-22.01825-14.50012-30.98962-3.46197-1.89248-6.34906-4.85065-8.09295-8.39652-.62649-1.27891-1.11739-2.65462-1.34991-4.05618,.39398,.05168,1.48556-5.94866,1.18841-6.3168,.54906-.83317,1.53178-1.24733,2.13144-2.06034,2.98232-4.04341,7.0912-3.33741,9.23621,2.15727,4.58224,2.31266,4.62659,6.14806,1.81495,9.83683-1.78878,2.34682-2.03456,5.52233-3.60408,8.03478,.16151,.20671,.32944,.40695,.4909,.61366,2.96106,3.79788,5.52208,7.88002,7.68104,12.16859-.61017-4.76621,.29067-10.50822,1.82641-14.20959,1.74819-4.21732,5.02491-7.76915,7.91045-11.41501,3.46601-4.37924,10.57337-2.46806,11.18401,3.08332,.00591,.05375,.01166,.10745,.01731,.1612-.4286,.24178-.84849,.49867-1.25864,.76992-2.33949,1.54723-1.53096,5.17386,1.24107,5.60174l.06277,.00967c-.15503,1.54366-.41984,3.07444-.80734,4.57937,3.70179,14.31579-4.29011,19.5299-15.70147,19.76412-.25191,.12916-.49738,.25832-.74929,.38109,1.15617,3.25525,2.07982,6.59447,2.76441,9.97891,.61359,2.99043,1.03991,6.01317,1.27885,9.04888,.29715,3.83006,.27129,7.67959-.05168,11.50323l.01939-.13562c.82024-4.21115,3.10671-8.14462,6.4266-10.87028,4.94561-4.06264,11.93282-5.55869,17.26826-8.82425,2.56833-1.57196,5.85945,.45945,5.41121,3.43708l-.02182,.14261c-.79443,.32289-1.56947,.69755-2.31871,1.11733-.4286,.24184-.84848,.49867-1.25864,.76992-2.33949,1.54729-1.53096,5.17392,1.24107,5.6018l.06282,.00965c.0452,.00646,.08397,.01295,.12911,.01944-1.36282,3.23581-3.26168,6.23922-5.63854,8.82922-2.31463,12.49713-12.25603,13.68282-22.89022,10.04354h-.00648c-1.16259,5.06378-2.86128,10.01127-5.0444,14.72621h-18.02019c-.06463-.20022-.12274-.40692-.18089-.60717,1.6664,.10341,3.34571,.00649,4.98629-.29702-1.33701-1.64059-2.67396-3.29409-4.01097-4.93462-.03229-.0323-.05816-.0646-.08397-.09689-.67817-.8396-1.36282-1.67283-2.04099-2.51246l-.00036-.00102c-.04245-2.57755,.26652-5.14662,.87876-7.63984l.00057-.00035Z" fill="#f2f2f2"/><path d="M178.34019,455.98619c0,.66003,.53003,1.19,1.19006,1.19h218.28998c.65997,0,1.19-.52997,1.19-1.19,0-.65997-.53003-1.19-1.19-1.19H179.53026c-.66003,0-1.19006,.53003-1.19006,1.19Z" fill="#ccc"/><g><path d="M217.91365,457.17619H41.48886c-21.51191,0-39.01333-17.50142-39.01333-39.01374V39.01333C2.47552,17.50142,19.97694,0,41.48886,0H217.91365c21.51151,0,39.01293,17.50142,39.01293,39.01333V418.16245c0,21.51232-17.50142,39.01374-39.01293,39.01374Z" fill="#3f3d56"/><path d="M256.92674,139.4635c-.91025,0-1.65045,.74021-1.65045,1.65045v52.81453c0,.91025,.74021,1.65045,1.65045,1.65045s1.65045-.74021,1.65045-1.65045v-52.81453c0-.91025-.74021-1.65045-1.65045-1.65045Z" fill="#3f3d56"/><path d="M253.21342,39.01362V418.15594c0,18.7244-14.57349,34.04062-33.00082,35.22894h-.00826c-.27234,.01652-.54463,.03304-.82523,.0413-.48691,.02473-.97376,.03299-1.46888,.03299,0,0-1.81551-.13206-5.13294-.37962-3.35042-.24756-8.22749-.61892-14.30946-1.10578-1.82372-.14032-3.74651-.29712-5.77659-.46213-4.04358-.33011-8.48331-.69321-13.24488-1.10583-1.89801-.1568-3.86206-.33006-5.86735-.50338-10.24931-.883-21.72824-1.91453-33.83431-3.08634-2.04655-.18984-4.10961-.38788-6.1892-.59419-.54463-.05777-1.09757-.10728-1.65045-.16506-8.63189-.84996-125.71564-23.47767-125.71564-27.90092V39.01362C6.1894,19.51355,21.99252,3.71043,41.49263,3.71043h21.07628c3.36694,0,6.07366,2.62422,6.36252,5.9829,.02473,.22283,.04951,.4456,.09076,.66843,.61066,3.3752,3.70526,5.72708,7.13818,5.72708h107.08205c3.43292,0,6.52752-2.35188,7.13818-5.72708,.04125-.22283,.06603-.4456,.09081-.66843,.28881-3.35868,2.99553-5.9829,6.36247-5.9829h21.07633c19.50007,0,35.30319,15.80312,35.30319,35.30319Z" fill="#fff"/><path d="M1.65045,99.8526c-.91025,0-1.65045,.74021-1.65045,1.65045v13.20363c0,.91025,.74021,1.65045,1.65045,1.65045s1.65045-.74021,1.65045-1.65045v-13.20363c0-.91025-.74021-1.65045-1.65045-1.65045Z" fill="#3f3d56"/><path d="M1.65045,139.4635c-.91025,0-1.65045,.74021-1.65045,1.65045v25.58204c0,.91025,.74021,1.65045,1.65045,1.65045s1.65045-.74021,1.65045-1.65045v-25.58204c0-.91025-.74021-1.65045-1.65045-1.65045Z" fill="#3f3d56"/><path d="M1.65045,175.77349c-.91025,0-1.65045,.74021-1.65045,1.65045v25.58204c0,.91025,.74021,1.65045,1.65045,1.65045s1.65045-.74021,1.65045-1.65045v-25.58204c0-.91025-.74021-1.65045-1.65045-1.65045Z" fill="#3f3d56"/><rect x="30.12079" y="9.49024" width="32.18385" height="4.12614" rx=".31021" ry=".31021" fill="#e6e6e6"/><circle cx="202.04914" cy="10.31547" r="3.30091" fill="#e6e6e6"/><circle cx="211.12664" cy="10.31547" r="3.30091" fill="#e6e6e6"/><circle cx="220.20414" cy="10.31547" r="3.30091" fill="#e6e6e6"/></g><circle cx="168.91247" cy="248.1906" r="12" fill="#6c63ff" opacity=".4"/><path d="M198.87579,381.69833H58.87579c-2.20557,0-4-1.79443-4-4s1.79443-4,4-4H198.87579c2.20557,0,4,1.79443,4,4s-1.79443,4-4,4Z" fill="#e6e6e6"/><path d="M217.26858,64.1906H41.30862c-10.48999,0-19.02002,8.52997-19.02002,19.01996v96.96002c0,10.48999,8.53003,19.02002,19.02002,19.02002H217.26858c10.48999,0,19.02002-8.53003,19.02002-19.02002V83.21055c0-10.48999-8.53003-19.01996-19.02002-19.01996Zm17.02002,115.97998c0,9.39001-7.63,17.02002-17.02002,17.02002H41.30862c-9.39001,0-17.02002-7.63-17.02002-17.02002V83.21055c0-9.38995,7.63-17.01996,17.02002-17.01996H217.26858c9.39001,0,17.02002,7.63,17.02002,17.01996v96.96002Z" fill="#e6e6e6"/><path d="M72.76645,294.6744l-8.22992-3.89856c3.37555,4.71082,6.28418,12.06805,7.84137,17.92249,2.63654-5.45343,6.88672-12.1261,11.09375-16.11194l-8.69812,2.23767c5.35974-26.26794,25.5191-45.12573,48.60437-45.12573v-2c-24.11316,0-45.13898,19.64758-50.61145,46.97607Z" fill="#3f3d56"/><path d="M110.64562,334.69833H58.64562c-2.20557,0-4-1.79443-4-4s1.79443-4,4-4h52c2.20557,0,4,1.79443,4,4s-1.79443,4-4,4Z" fill="#6c63ff"/><circle cx="154.91247" cy="248.1906" r="12" fill="#fff"/><circle cx="154.91247" cy="248.1906" r="12" fill="#6c63ff" opacity=".7"/><circle cx="90.02174" cy="113.1906" r="12" fill="#ccc"/><circle cx="129.2886" cy="113.1906" r="12" fill="#ccc" opacity=".7"/><circle cx="168.55545" cy="113.1906" r="12" fill="#ccc" opacity=".4"/><circle cx="90.02174" cy="150.1906" r="12" fill="#3f3d56"/><circle cx="129.2886" cy="150.1906" r="12" fill="#3f3d56" opacity=".7"/><circle cx="168.55545" cy="150.1906" r="12" fill="#3f3d56" opacity=".4"/><circle cx="142.91247" cy="248.1906" r="12" fill="#6c63ff"/><g><path d="M315.20227,188.57915h-27.44728l-1.42119-23.99893c0-15.09651,13.65933-14.34654,28.75584-14.34654h.11264v38.34547Z" fill="#2f2e41"/><circle cx="299.94117" cy="162.04975" r="12.83232" fill="#a0616a"/><path d="M243.26373,182.68559c.36934,1.6976,.32463,3.33787-.04929,4.69079l4.53993,15.94963-7.65267,1.93826-3.78136-16.388c-.90223-1.07527-1.62437-2.5487-1.99371-4.2463-.84375-3.87816,.47289-7.45727,2.94081-7.99419s5.15253,2.17165,5.99628,6.0498h0Z" fill="#a0616a"/><g><polygon points="300.02662 440.45809 293.8769 440.60322 290.44894 412.97483 299.52438 412.76006 300.02662 440.45809" fill="#a0616a"/><path d="M278.92771,453.28826h0c0,1.03889,.73725,1.88109,1.64672,1.88109h12.20668s1.20124-4.82866,6.09887-6.90669l.33802,6.90669h6.297l-.76295-11.10565s1.68448-5.94156-1.81382-8.97872c-3.49834-3.03716-.66482-2.61436-.66482-2.61436l-1.37618-6.87356-9.51544,1.11896-.06996,10.78988-4.61777,10.70996-6.77316,3.34583c-.60284,.29779-.99309,.97631-.99309,1.72656l-.00008,.00002Z" fill="#2f2e41"/></g><g><polygon points="277.5336 439.81543 271.38388 439.96056 267.95592 412.33217 277.03136 412.1174 277.5336 439.81543" fill="#a0616a"/><path d="M256.43469,452.6456h0c0,1.03889,.73725,1.88109,1.64672,1.88109h12.20668s1.20124-4.82866,6.09887-6.90669l.33802,6.90669h6.297l-.76295-11.10565s1.68448-5.94156-1.81382-8.97872c-3.49834-3.03716-.66482-2.61436-.66482-2.61436l-1.37618-6.87356-9.51544,1.11896-.06996,10.78988-4.61777,10.70996-6.77316,3.34583c-.60284,.29779-.99309,.97631-.99309,1.72656l-.00008,.00002Z" fill="#2f2e41"/></g><path d="M281.86589,244.65735l-4.64182,4.23818-11.06364,15.54001-12.51273,86.37821,12.1091,68.65793h13.47733l-1.57005-71.68521,10.29273-24.01637-.82793,95.70158h15.7895l16.05581-121.31779c1.73676-14.56383-1.5424-29.31319-9.42722-41.68053-.19478-.30551-.3929-.61356-.59443-.92414-.20036-.30879-.40437-.61033-.61209-.90426-11.90728-16.84944-26.47456-9.98762-26.47456-9.98762Z" fill="#2f2e41"/><path d="M308.34045,181.0846l-17.76001-1.21091-2.82546,4.84364-12.91637,1.21091-1.61455,27.44728s-5.65091,8.47637-1.61455,17.76001l2.46169,14.99528-9,21,38.46658-11.09998,4.80265-1.38586,6.45818-19.87671s8.07273-7.77715,4.03637-19.02495l-.80727-24.5678-6.86182-4.44-2.82546-5.65091Z" fill="#6c63ff"/><path d="M295.58528,181.82473s6.59344,12.46162-11.91935,24.76692l-27.55617,24.74864c-1.51817,1.36349-3.59788,1.9167-5.59286,1.48772h0c-2.34185-.50357-4.2029-2.27892-4.81623-4.59446l-8.56792-32.34699,7.87085-3.01396,10.32262,19.06501,19.44755-26.94589,20.81151-3.167Z" fill="#6c63ff"/><path d="M313.74945,286.23846c.06681-1.73603,.52018-3.31303,1.22047-4.5295l-.40817-16.57815,7.89423,.03654-.43591,16.81295c.60475,1.26669,.93558,2.87387,.86877,4.6099-.15262,3.96595-2.32228,7.10222-4.84605,7.00509-2.52378-.09713-4.44596-3.39088-4.29334-7.35682h0Z" fill="#a0616a"/><path d="M311.79537,189.53236s12.52051-.95801,13.1103,5.68574c.333,3.75108,2.60511,37.87679,2.23313,58.76625-.28685,16.10905-4.74647,23.95303-4.74647,23.95303l-8.05754-.27587-2.53943-88.12915Z" fill="#6c63ff"/><path d="M285.15118,161.31008l.47884-.00708c.61444-2.00522,.05823-.18668,1.44519,.2851l2.01958-1.33373,6.53188-.04556c1.64437-.01147,3.2498,.42297,4.70898,1.18119,.64356,.3344,1.2348,.51373,1.61136,.13261l2.23917-2.26631s-3.44908,31.45725-4.31465,33.72561l2.62319-.33182s.80548-5.70795,1.23366-5.75721c.11352-.01306,.25785,.3075,.41109,.79898,.74604,2.39281,1.86962,7.01582,3.19433,4.88838,.72021-1.15674,1.53833-1.20459,2.29321,.21973,1.74048,3.28369,6.88831-.86142,9.06543-3.87369,.01254-.01735,.02415-.02549,.03474-.02371,.05262,.00885,.10787,.12079,.16293,.29686,.47632,1.52332,1.89257,2.55704,3.48288,2.42175,.39804-.03386,4.96081,3.95907,.70226-.03305-2.598-2.43546,.42163-6.46268-3-13-2.00836-3.8371,2.05586-9.33425,2.01463-13.84485-.05365-5.86948-1.33031-11.22969-4.63-14.32687-3.44529-3.23385-6.25695-3.07813-11.70906-3.75489h0c-7.7857-5.82761-16.58823-.96762-20.52091,8.44056-.88092,2.10743,.24377,3.61002-.07871,6.20802Z" fill="#2f2e41"/></g></svg>